<svg xmlns="http://www.w3.org/2000/svg" viewBox="0 0 512 512">
  <defs>
    <linearGradient id="bg" x1="0" y1="0" x2="0" y2="1">
      <stop offset="0" stop-color="#14b488"/>
      <stop offset="1" stop-color="#0b7a5f"/>
    </linearGradient>
    <linearGradient id="pillTop" x1="0" y1="0" x2="0" y2="1">
      <stop offset="0" stop-color="#ffffff"/>
      <stop offset="1" stop-color="#eaf7f2"/>
    </linearGradient>
    <linearGradient id="pillBot" x1="0" y1="0" x2="0" y2="1">
      <stop offset="0" stop-color="#fff6e0"/>
      <stop offset="1" stop-color="#f2e1b5"/>
    </linearGradient>
    <linearGradient id="heartGrad" x1="0" y1="0" x2="0" y2="1">
      <stop offset="0" stop-color="#ff6b6b"/>
      <stop offset="1" stop-color="#d83a3a"/>
    </linearGradient>
  </defs>

  <rect width="512" height="512" rx="112" fill="url(#bg)"/>
  <rect width="512" height="512" rx="112" fill="none" stroke="rgba(255,255,255,0.08)" stroke-width="4"/>

  <g transform="translate(256 270) rotate(-30)">
    <rect x="-68" y="-168" width="136" height="168" rx="68" ry="68" fill="url(#pillTop)"/>
    <rect x="-68" y="0"    width="136" height="168" rx="68" ry="68" fill="url(#pillBot)"/>
    <rect x="-68" y="-4"   width="136" height="8" fill="#0d9373" opacity="0.85"/>
    <ellipse cx="-30" cy="-110" rx="14" ry="34" fill="#ffffff" opacity="0.55"/>
  </g>

  <g transform="translate(366 132)">
    <circle r="58" fill="#ffffff"/>
    <circle r="50" fill="url(#heartGrad)"/>
    <path d="M0 22 C -28 4 -40 -14 -28 -26 C -18 -36 -6 -30 0 -18 C 6 -30 18 -36 28 -26 C 40 -14 28 4 0 22 Z" fill="#ffffff"/>
  </g>
</svg>
